HIERARCHY
ROOT Hips
{
	OFFSET -3.958830 18.904000 13.208200
	CHANNELS 6 Xposition Yposition Zposition Zrotation Yrotation Xrotation 
	JOINT LHipJoint
	{
		OFFSET 0.000000 0.000000 0.000000
		CHANNELS 3 Zrotation Yrotation Xrotation
		JOINT LeftUpLeg
		{
			OFFSET 1.800000 -1.400000 0.085000
			CHANNELS 3 Zrotation Yrotation Xrotation
			JOINT LeftLeg
			{
				OFFSET 2.215000 -6.000000 0.000000
				CHANNELS 3 Zrotation Yrotation Xrotation
				JOINT LeftFoot
				{
					OFFSET 2.500000 -6.900000 0.000000
					CHANNELS 3 Zrotation Yrotation Xrotation
					JOINT LeftToeBase
					{
						OFFSET 0.200000 -0.500000 1.950000
						CHANNELS 3 Zrotation Yrotation Xrotation
						End Site
						{
							OFFSET 0.000000 0.000000 0.000000
						}
					}
				}
			}
		}
	}
	JOINT RHipJoint
	{
		OFFSET 0.000000 0.000000 0.000000
		CHANNELS 3 Zrotation Yrotation Xrotation
		JOINT RightUpLeg
		{
			OFFSET -1.800000 -1.400000 0.085000
			CHANNELS 3 Zrotation Yrotation Xrotation
			JOINT RightLeg
			{
				OFFSET -2.215000 -6.000000 0.000000
				CHANNELS 3 Zrotation Yrotation Xrotation
				JOINT RightFoot
				{
					OFFSET -2.500000 -6.900000 0.000000
					CHANNELS 3 Zrotation Yrotation Xrotation
					JOINT RightToeBase
					{
						OFFSET -0.200000 -0.500000 1.950000
						CHANNELS 3 Zrotation Yrotation Xrotation
						End Site
						{
							OFFSET 0.000000 0.000000 0.000000
						}
					}
				}
			}
		}
	}
	JOINT LowerBack
	{
		OFFSET 0.000000 0.000000 0.000000
		CHANNELS 3 Zrotation Yrotation Xrotation
		JOINT Spine
		{
			OFFSET -0.087000 1.940000 -0.288900
			CHANNELS 3 Zrotation Yrotation Xrotation
			JOINT Spine1
			{
				OFFSET 0.000000 1.950000 0.060000
				CHANNELS 3 Zrotation Yrotation Xrotation
				JOINT Neck
				{
					OFFSET 0.000000 0.000000 0.000000
					CHANNELS 3 Zrotation Yrotation Xrotation
					JOINT Neck1
					{
						OFFSET 0.000000 1.600000 0.340000
						CHANNELS 3 Zrotation Yrotation Xrotation
						JOINT Head
						{
							OFFSET 0.000000 1.667000 -0.240000
							CHANNELS 3 Zrotation Yrotation Xrotation
							End Site
							{
								OFFSET 0.000000 0.000000 0.000000
							}
						}
					}
				}
				JOINT LeftShoulder
				{
					OFFSET 0.000000 0.000000 0.000000
					CHANNELS 3 Zrotation Yrotation Xrotation
					JOINT LeftArm
					{
						OFFSET 2.700000 1.550000 -0.730000
						CHANNELS 3 Zrotation Yrotation Xrotation
						JOINT LeftForeArm
						{
							OFFSET 5.450000 0.000000 0.000000
							CHANNELS 3 Zrotation Yrotation Xrotation
							JOINT LeftHand
							{
								OFFSET 3.450000 0.000000 0.000000
								CHANNELS 3 Zrotation Yrotation Xrotation
								JOINT LeftHandIndex1
								{
									OFFSET 0.750000 0.000000 0.000000
									CHANNELS 3 Zrotation Yrotation Xrotation
									End Site
									{
										OFFSET 0.000000 0.000000 0.000000
									}
								}
							}
						}
					}
				}
				JOINT RightShoulder
				{
					OFFSET 0.000000 0.000000 0.000000
					CHANNELS 3 Zrotation Yrotation Xrotation
					JOINT RightArm
					{
						OFFSET -2.700000 1.550000 -0.730000
						CHANNELS 3 Zrotation Yrotation Xrotation
						JOINT RightForeArm
						{
							OFFSET -5.450000 0.000000 0.000000
							CHANNELS 3 Zrotation Yrotation Xrotation
							JOINT RightHand
							{
								OFFSET -3.450000 0.000000 0.000000
								CHANNELS 3 Zrotation Yrotation Xrotation
								JOINT RightHandIndex1
								{
									OFFSET -0.750000 0.000000 0.000000
									CHANNELS 3 Zrotation Yrotation Xrotation
									End Site
									{
										OFFSET 0.000000 0.000000 0.000000
									}
								}
							}
						}
					}
				}
			}
		}
	}
}
MOTION
Frames: 7
Frame Time: 0.016667
-1.000960 18.255440 -5.990700 -4.782252 9.359974 0.219023 -15.087342 13.108553 2.399106 4.723769 -1.927191 -16.889597 -3.454370 5.574434 19.883982 -1.188072 5.363119 3.183074 0.081730 -0.475360 -0.200900 18.459892 -10.444785 3.400778 4.821132 5.408135 -26.761885 4.016377 -3.662573 13.162878 0.083234 -2.666726 3.453739 0.099150 1.501210 0.734200 -4.122693 -1.371765 -6.983497 12.531143 -1.651730 6.653929 -6.277890 -0.547480 12.679486 1.516783 -3.736335 -8.187749 -6.945384 2.775890 25.433578 -0.827150 -3.444870 -5.042280 -5.801812 -6.655544 4.421468 -41.177423 -25.810984 8.703583 98.320444 -51.803009 -62.708069 -4.484892 1.981774 0.571230 0.843810 -0.429010 0.503170 2.920052 8.906777 2.499745 33.978410 21.474547 -4.987816 -69.052492 84.743365 -54.302244 0.109091 1.771393 -0.676940 0.752730 0.509210 0.027690 
-1.026630 18.184370 -6.005880 -4.685280 9.060017 -0.377192 -15.082326 13.145857 2.382725 4.680102 -1.848095 -16.510686 -3.201181 5.666772 20.745048 -1.202641 5.444346 3.146317 0.105050 -0.440710 -0.178660 18.455989 -10.465287 3.401189 4.654657 5.091364 -25.828215 4.387185 -3.483115 10.758377 0.071182 -2.536111 3.506289 0.121870 1.478710 0.693270 -4.124010 -1.395071 -7.022186 12.351752 -1.580255 7.786508 -6.181708 -0.310590 13.096409 1.327014 -4.032686 -8.239023 -7.482906 2.950104 25.557602 0.287650 -3.728750 -7.126670 -5.667637 -6.958242 4.437322 -41.892840 -26.811904 9.003102 99.745539 -50.873827 -63.896022 -4.454455 1.976875 0.625480 0.795700 -0.400650 0.500830 3.171292 9.531564 2.596505 34.077142 22.458354 -4.751714 -71.489424 82.030586 -53.656667 0.063346 1.793313 -0.701510 0.808100 0.501940 0.017920 
-1.073390 18.052760 -6.031170 -5.167754 8.587282 -0.564651 -15.051970 13.061781 2.308286 5.150330 -1.897108 -17.349157 -2.408997 5.720935 22.679181 -1.213774 5.599331 3.073082 0.148110 -0.377720 -0.169470 18.502165 -10.433116 3.513035 5.365503 5.012972 -24.876679 5.052809 -2.992717 5.558010 0.061063 -2.406343 3.565785 0.170560 1.485330 0.695070 -4.226622 -1.222653 -7.091282 13.056256 -1.507918 8.809228 -6.397436 -0.014599 13.197607 1.183174 -4.342378 -8.027956 -7.738237 3.152929 24.575504 0.693270 -3.801620 -8.429350 -6.626838 -7.432710 4.300937 -42.185324 -27.772488 9.404026 102.208636 -49.770782 -65.809056 -4.478043 2.029554 0.629930 0.796390 -0.389350 0.519650 4.415603 10.369136 2.509208 33.742964 23.857173 -4.420924 -69.614977 78.204605 -49.027800 0.141521 1.158787 -0.701270 0.841320 0.491890 0.024430 
-1.132290 17.898100 -6.046990 -5.703402 7.786933 0.130308 -15.024773 12.866250 2.250309 5.896296 -2.015960 -18.976711 -2.215713 6.021269 24.648695 -1.186309 5.816194 2.976561 0.191440 -0.313630 -0.164680 18.564436 -10.321009 3.674075 5.709908 5.422141 -25.131727 6.634109 -2.496340 0.696527 0.045291 -2.407729 3.556233 0.220560 1.499190 0.703240 -4.337983 -0.960980 -7.158152 13.748421 -0.830439 8.581576 -6.455905 0.731919 13.146410 0.996288 -4.523141 -7.842681 -7.782089 3.073886 23.632723 0.782410 -4.078870 -8.077930 -7.663362 -7.681229 4.186795 -43.309406 -29.227374 10.862990 103.883498 -49.913586 -67.869560 -4.496662 2.084309 0.585190 0.812370 -0.401940 0.543710 5.789088 10.930276 2.483596 33.527130 25.108215 -3.268440 -70.905231 74.027846 -46.943034 0.209588 0.779165 -0.684070 0.840830 0.470910 0.044950 
-1.207080 17.744280 -6.061480 -5.530567 6.975589 0.699764 -15.067170 12.770633 2.280284 5.908474 -2.174436 -20.707402 -1.894035 6.366392 26.890103 -1.085038 6.037223 2.880569 0.206160 -0.263450 -0.203140 18.543258 -10.159219 3.788087 5.290417 5.834631 -25.890299 8.204943 -2.103388 -2.242801 0.059932 -2.470610 3.563554 0.243760 1.503890 0.695560 -4.231553 -1.001713 -7.250139 12.187120 0.188616 8.653099 -4.934579 1.683233 13.258431 0.628865 -4.345437 -8.103603 -7.399737 2.940965 23.229228 0.698250 -4.117160 -6.179880 -8.596641 -8.808071 4.519845 -45.177832 -30.535662 11.928503 104.284228 -50.884831 -69.759959 -4.503720 2.120887 0.494480 0.842970 -0.437790 0.572310 7.517375 12.388965 2.865169 32.653956 24.920421 -3.277454 -73.162390 71.091043 -47.034657 0.288092 0.560607 -0.643800 0.796690 0.438090 0.076170 
-1.295600 17.613100 -6.081600 -5.117577 7.095313 0.998332 -15.125340 12.724435 2.374354 5.656227 -2.481446 -22.749995 -0.864553 6.541217 29.816299 -1.053380 6.372510 2.741099 0.224290 -0.233360 -0.192460 18.498903 -10.046266 3.828152 4.966638 6.221272 -27.318980 8.498868 -1.993855 -2.343317 0.072050 -2.388603 3.576464 0.270510 1.509870 0.691480 -4.082728 -1.098767 -7.321988 10.024552 0.653938 9.386864 -3.693330 2.110146 13.367919 0.294073 -3.908903 -8.115313 -6.561622 3.047437 22.792993 0.939950 -3.838770 -6.561180 -9.147966 -8.995296 4.601731 -47.579758 -31.189797 13.154651 106.949566 -52.588035 -75.179872 -4.537815 2.101535 0.496250 0.845440 -0.434430 0.578060 8.832458 12.658611 2.935174 34.573952 25.723489 -2.950333 -74.537307 69.261699 -47.430187 0.333508 0.477221 -0.651760 0.815290 0.432170 0.076080 
-1.390160 17.518390 -6.114230 -4.620819 7.605313 0.464740 -15.192088 12.794547 2.546076 5.427588 -2.810335 -24.566386 0.408483 6.718467 33.235149 -1.027016 6.848098 2.519270 0.206200 -0.274880 -0.168350 18.421910 -9.992646 3.788653 4.523234 6.500765 -29.075493 7.778268 -2.365791 1.168745 0.107222 -2.189485 3.610487 0.246440 1.474030 0.701000 -3.881982 -1.356375 -7.417384 7.904586 0.831758 11.588033 -2.487032 2.429603 13.656745 -0.071967 -3.875555 -8.367583 -6.527262 2.924345 22.749672 1.112110 -3.784550 -8.461050 -10.246677 -10.104196 4.824953 -48.687717 -30.843271 13.002088 110.755549 -55.632016 -84.144097 -4.603893 2.042166 0.566370 0.812540 -0.401160 0.528690 10.723291 14.156740 3.417662 35.243649 25.541279 -3.901666 -79.225070 68.575807 -51.496216 0.338239 0.758242 -0.665610 0.823000 0.474430 0.040360 
